<svg width="35" height="35" viewBox="0 0 35 35" fill="none" xmlns="http://www.w3.org/2000/svg">
<path d="M5.2832 0.0957031C4.58594 0.314453 4.08008 0.758789 3.76562 1.43555L3.58789 1.81152V15.0391V28.2666L3.76562 28.6494C4.01855 29.1895 4.38086 29.5586 4.90723 29.8184L5.36523 30.0439L11.8389 30.0645L18.3193 30.0781V27.7539V25.4297L18.0869 24.9648C16.5078 21.8271 17.123 18.1084 19.6523 15.5449C20.9033 14.2803 22.332 13.5215 24.041 13.2275C25.0254 13.0566 26.4268 13.1182 27.4658 13.3779L27.6162 13.4121L27.6025 7.6084L27.582 1.81152L27.3564 1.35352C27.0967 0.827148 26.7275 0.464844 26.1875 0.211914L25.8047 0.0341797L15.6875 0.0205078C7.45703 0.0136719 5.51562 0.0273438 5.2832 0.0957031ZM20.001 5.64648C20.3633 5.91309 20.4727 6.13184 20.4727 6.5625C20.4727 6.99316 20.3633 7.21191 20.001 7.47852C19.8164 7.62207 19.7412 7.62207 14.915 7.64258C11.5996 7.65625 9.93164 7.64258 9.76074 7.58789C9.07031 7.38965 8.80371 6.43945 9.27539 5.87207C9.62402 5.45508 9.41895 5.46875 14.8467 5.48926C19.7412 5.50293 19.8164 5.50293 20.001 5.64648ZM20.001 10.0215C20.3633 10.2881 20.4727 10.5068 20.4727 10.9375C20.4727 11.3682 20.3633 11.5869 20.001 11.8535C19.8164 11.9971 19.7412 11.9971 14.9492 12.0176C12.2695 12.0312 9.97949 12.0176 9.85645 11.9971C9.54199 11.9424 9.11816 11.5117 9.05664 11.1904C8.98828 10.835 9.06348 10.5 9.27539 10.2471C9.62402 9.83008 9.41895 9.84375 14.8467 9.86426C19.7412 9.87793 19.8164 9.87793 20.001 10.0215ZM16.1729 14.3965C16.5352 14.6631 16.6445 14.8818 16.6445 15.3125C16.6445 15.7432 16.5352 15.9619 16.1729 16.2285C15.9883 16.3652 15.8926 16.3721 13.0352 16.3926C11.4082 16.4062 9.97949 16.3926 9.85645 16.3721C9.54199 16.3174 9.11816 15.8867 9.05664 15.5654C8.98828 15.21 9.06348 14.875 9.27539 14.6221C9.61719 14.2188 9.58984 14.2188 12.9326 14.2393C15.8994 14.2529 15.9883 14.2598 16.1729 14.3965Z" fill="white"/>
<path d="M24.3137 15.4218C21.9143 15.8524 19.9387 17.8485 19.5148 20.2685C18.8039 24.37 22.3654 27.9589 26.4397 27.248C28.7844 26.8378 30.6232 25.1425 31.259 22.7978C31.4709 22.0185 31.4709 20.6376 31.259 19.8583C30.9582 18.7509 30.4318 17.828 29.6389 17.0556C28.2375 15.6679 26.2688 15.0663 24.3137 15.4218ZM27.7043 18.8876C28.0256 19.1337 28.1897 19.496 28.1418 19.872C28.1145 20.1249 27.9094 20.4804 26.8908 21.998C26.2141 22.996 25.5783 23.8778 25.4758 23.9599C25.3322 24.0624 25.175 24.0966 24.8811 24.0966C24.4914 24.0966 24.4709 24.0829 23.4729 23.413C22.9191 23.037 22.3996 22.6405 22.3244 22.538C22.1262 22.2646 22.1262 21.6151 22.3244 21.3554C22.591 20.9999 22.8098 20.8837 23.2336 20.8837C23.5891 20.8837 23.6779 20.9179 24.1018 21.1981L24.5803 21.5126L25.3254 20.3847C26.2141 19.0448 26.3439 18.8808 26.6242 18.7577C26.9318 18.6142 27.424 18.6757 27.7043 18.8876Z" fill="white"/>
<path d="M20.5059 31.001C20.5059 34.46 20.499 34.4258 20.957 34.7676C21.169 34.9316 21.2783 34.9658 21.5928 34.9658C21.9619 34.9658 22.044 34.9248 23.6641 33.9883C24.5938 33.4551 25.3867 33.0176 25.4277 33.0176C25.4688 33.0176 26.2617 33.4551 27.1914 33.9883C28.8115 34.9248 28.8936 34.9658 29.2627 34.9658C29.5772 34.9658 29.6865 34.9316 29.8984 34.7676C30.3565 34.4258 30.3496 34.46 30.3496 31.001V27.8838L29.96 28.1504C29.1191 28.7246 27.9775 29.1895 26.8975 29.4014C26.624 29.4561 25.9951 29.4971 25.4277 29.4971C24.8604 29.4971 24.2315 29.4561 23.958 29.4014C22.8779 29.1895 21.7363 28.7246 20.9023 28.1504L20.5059 27.8838V31.001Z" fill="white"/>
</svg>
