<svg width="45" height="45" viewBox="0 0 45 45" fill="none" xmlns="http://www.w3.org/2000/svg">
<path d="M29.8125 3.62985C29.6279 3.83199 29.6191 3.90231 29.6191 5.90621C29.6191 8.20895 29.6367 8.29684 30.208 8.40231C30.4453 8.44625 30.5332 8.4111 30.7617 8.18258L31.0342 7.91891L31.0078 5.8359C30.9814 3.77926 30.9814 3.76168 30.7705 3.59469C30.4893 3.36617 30.0498 3.37496 29.8125 3.62985Z" fill="white"/>
<path d="M24.082 5.08008L23.8184 5.34375V7.38281V9.41309L24.0381 9.62402C24.1699 9.76465 24.3545 9.84375 24.5215 9.84375C24.6885 9.84375 24.873 9.76465 25.0049 9.62402L25.2246 9.41309V7.35645C25.2246 5.0625 25.207 4.97461 24.6357 4.86914C24.3984 4.82519 24.3105 4.86035 24.082 5.08008Z" fill="white"/>
<path d="M35.6211 5.04502L35.375 5.25595L35.3486 7.17197C35.3311 8.22666 35.3398 9.18467 35.375 9.29013C35.5068 9.83506 36.1748 10.0284 36.5439 9.6417C36.7285 9.43955 36.7373 9.36924 36.7373 7.34775V5.26474L36.5176 5.05381C36.2451 4.77256 35.9375 4.77256 35.6211 5.04502Z" fill="white"/>
<path d="M29.4882 9.58886C28.5039 9.67675 27.7832 9.8789 26.8164 10.3359C25.7792 10.8281 25.0673 11.3291 24.3378 12.1113C23.4238 13.0781 22.8701 13.9834 22.4482 15.2227C21.833 17.0332 21.9736 19.4414 22.8085 21.3047C23.6875 23.2822 25.4013 24.8467 27.458 25.541C30.121 26.4463 33.206 26.0068 35.3066 24.4248C37.1435 23.0449 38.207 21.085 38.5146 18.5273C38.7958 16.207 37.9082 13.7549 36.1679 11.9883C34.4013 10.2041 32.0458 9.36035 29.4882 9.58886ZM30.7626 12.6387C30.9033 12.7529 30.9736 12.9199 31 13.2451L31.0439 13.6934L31.8789 13.7285C32.6699 13.7549 32.7226 13.7637 32.9335 14.0098C33.1005 14.2119 33.1357 14.3262 33.1005 14.5371C32.9951 15.0469 32.9248 15.0732 31.1757 15.1172C29.8398 15.1523 29.541 15.1875 29.3476 15.3193C28.7851 15.6973 28.7851 16.5586 29.3476 16.9365C29.5058 17.0332 29.8574 17.0947 30.499 17.1387C31.5361 17.2002 31.8876 17.3232 32.3886 17.8242C33.083 18.501 33.2675 19.5381 32.872 20.4609C32.6259 21.0322 32.0283 21.5771 31.4746 21.7441L31.0703 21.8584L31.0263 22.3242C30.9912 22.667 30.9208 22.8252 30.7714 22.9482C30.2617 23.3613 29.6201 22.9922 29.6201 22.2803V21.8848H28.7851C28.0117 21.8848 27.9238 21.8672 27.7304 21.665C27.4667 21.4102 27.4492 21.0146 27.6777 20.7334C27.8447 20.5312 27.8974 20.5225 29.4707 20.4785C30.9384 20.4346 31.1142 20.417 31.29 20.2588C31.6064 19.9775 31.7382 19.5908 31.6416 19.2305C31.4921 18.6943 31.29 18.5977 30.288 18.5361C28.9345 18.457 28.2666 18.0967 27.8095 17.2002C27.08 15.7852 27.8095 14.2822 29.4707 13.7637C29.5849 13.7285 29.6201 13.623 29.6201 13.3154C29.6201 12.6123 30.2617 12.2344 30.7626 12.6387Z" fill="white"/>
<path d="M16.5244 25.6553C16.2607 25.7432 14.2568 26.7012 12.0771 27.7823L8.11328 29.751L10.1172 33.8379C11.4355 36.545 12.1562 37.9161 12.2354 37.8985C12.2969 37.8809 13.0615 37.5294 13.9316 37.1075L15.5137 36.3428L16.3047 36.3516C17.0869 36.3604 17.1309 36.3692 20.5674 37.5645C23.8896 38.7247 24.0654 38.7774 24.7422 38.7774C25.2959 38.7862 25.5508 38.7335 25.9727 38.5665C26.2627 38.4434 29.0488 37.1075 32.1689 35.5958C35.2891 34.084 38.6113 32.4756 39.5518 32.0186C41.7842 30.9463 42.127 30.6211 42.1357 29.5752C42.1445 28.3887 41.1162 27.4659 39.9648 27.6241C39.4199 27.7032 30.4199 32.0274 30.1914 32.3262C29.6816 32.9942 29.1982 33.4249 28.6621 33.6885C28.126 33.9522 28.0205 33.9698 27.2031 33.9698C26.3594 33.9698 26.2715 33.9522 24.9004 33.4688C24.1182 33.1876 22.0879 32.4844 20.374 31.8956C18.6689 31.3155 17.2012 30.7706 17.1221 30.6915C16.7178 30.2872 17.0166 29.5313 17.5791 29.5313C17.7197 29.5313 19.8467 30.2256 22.2988 31.0782C26.5615 32.546 26.79 32.6163 27.335 32.5899C28.249 32.5372 28.8994 31.9835 29.0928 31.0782C29.251 30.3223 28.8994 29.4874 28.2666 29.1006C28.1084 28.9952 25.8057 28.1602 23.1514 27.2374C18.9238 25.7696 18.2471 25.5586 17.667 25.5235C17.1748 25.4971 16.8848 25.5235 16.5244 25.6553Z" fill="white"/>
<path d="M4.55273 30.129L2.83008 30.9815L5.39648 36.2286C6.80273 39.1114 7.98047 41.4932 8.00684 41.5284C8.04199 41.5548 8.8418 41.2032 9.79102 40.7462L11.5137 39.92L10.8633 38.5665C9.47461 35.6837 6.39844 29.3995 6.3457 29.338C6.31055 29.3028 5.50195 29.6632 4.55273 30.129Z" fill="white"/>
</svg>
