<svg width="35" height="35" viewBox="0 0 35 35" fill="none" xmlns="http://www.w3.org/2000/svg">
<g clip-path="url(#clip0_1294_1696)">
<path d="M2.57739 0.0684338C1.36743 0.273512 0.273682 1.39461 0.0686035 2.63875C-0.0202637 3.16511 -0.0202637 7.97761 0.0686035 8.50398C0.212158 9.39265 0.875244 10.3155 1.68872 10.753C2.44751 11.1632 1.65454 11.1427 17.5002 11.1427C33.3459 11.1427 32.553 11.1632 33.3118 10.753C34.1252 10.3155 34.7883 9.39265 34.9319 8.50398C35.0208 7.97761 35.0208 3.16511 34.9319 2.63875C34.7268 1.36043 33.6399 0.273512 32.3616 0.0684338C31.8694 -0.0135975 3.05591 -0.00676155 2.57739 0.0684338ZM6.0022 3.32234C6.33716 3.55476 6.35767 3.69832 6.35767 5.57136C6.35767 7.45808 6.33716 7.58797 5.98853 7.82039C5.61255 8.06648 5.03149 7.88191 4.8606 7.46492C4.80591 7.3282 4.7854 6.73347 4.79907 5.44148L4.81958 3.60945L5.04517 3.41121C5.2981 3.17879 5.74243 3.13777 6.0022 3.32234ZM9.14673 3.30867C9.51587 3.50007 9.53638 3.62312 9.53638 5.57136C9.53638 7.51277 9.52271 7.60164 9.1604 7.81355C8.78442 8.03914 8.25122 7.90242 8.05298 7.53328C7.98462 7.40339 7.96411 6.92488 7.96411 5.54402C7.96411 3.9239 7.97778 3.70515 8.08032 3.55476C8.31958 3.2198 8.77759 3.11726 9.14673 3.30867ZM12.4553 3.41121L12.6809 3.60945L12.7014 5.44148C12.7151 6.73347 12.6946 7.3282 12.6399 7.46492C12.3938 8.05281 11.5393 8.08699 11.2385 7.51277C11.095 7.22566 11.095 3.91023 11.2454 3.62312C11.4846 3.16511 12.0657 3.06257 12.4553 3.41121ZM24.6028 4.17C24.8625 4.29988 25.0471 4.47761 25.2659 4.81941C25.3684 4.97664 25.3958 5.14754 25.3958 5.57136C25.3958 6.04988 25.3752 6.15242 25.2043 6.40535C24.5413 7.43757 23.0032 7.36238 22.4631 6.27547C21.9026 5.15437 22.7913 3.86922 24.0217 4.00593C24.2063 4.02644 24.4661 4.0948 24.6028 4.17ZM29.0803 4.06062C30.0374 4.34773 30.4817 5.37996 30.0374 6.27547C29.4973 7.36238 27.9592 7.43757 27.2961 6.40535C27.1252 6.15242 27.1047 6.04988 27.1047 5.57136C27.1047 5.14754 27.1321 4.97664 27.2346 4.81941C27.5354 4.35457 27.8225 4.13582 28.2668 4.02644C28.5881 3.95125 28.7317 3.95808 29.0803 4.06062Z" fill="white"/>
<path d="M2.13379 12.127C1.15625 12.4961 0.513672 13.1592 0.158203 14.1641C0.0488281 14.4922 0.0351562 14.7861 0.0351562 17.5C0.0351562 20.2139 0.0488281 20.5078 0.158203 20.8359C0.520508 21.8682 1.19727 22.5449 2.22266 22.9004C2.6123 23.0371 2.7832 23.0371 17.501 23.0371C32.2188 23.0371 32.3896 23.0371 32.7793 22.9004C33.8047 22.5449 34.4814 21.8682 34.8438 20.8359C34.9531 20.5078 34.9668 20.2139 34.9668 17.5C34.9668 14.7861 34.9531 14.4922 34.8438 14.1641C34.4814 13.1318 33.8047 12.4551 32.7793 12.0996C32.3896 11.9629 32.2188 11.9629 17.4736 11.9697H2.56445L2.13379 12.127ZM6.02344 15.2646C6.32422 15.4492 6.3584 15.6816 6.3584 17.4863C6.3584 18.4297 6.33105 19.2773 6.29688 19.3662C6.06445 19.9609 5.22363 20.0361 4.90234 19.4893C4.7998 19.3184 4.78613 19.0654 4.78613 17.5C4.78613 15.9414 4.7998 15.6816 4.90234 15.5107C5.12109 15.1416 5.64062 15.0254 6.02344 15.2646ZM9.22949 15.3057C9.54395 15.5313 9.57812 15.8115 9.55762 17.6367C9.53711 19.5234 9.5166 19.6055 9.03809 19.8037C8.81934 19.8926 8.75098 19.8994 8.51855 19.8174C8.36816 19.7627 8.18359 19.6328 8.1084 19.5303C7.97168 19.3457 7.96484 19.2568 7.96484 17.5068C7.96484 15.8525 7.97852 15.6611 8.08789 15.4902C8.33398 15.1143 8.85352 15.0254 9.22949 15.3057ZM12.2646 15.21C12.6953 15.415 12.7158 15.5107 12.7158 17.5C12.7158 19.0654 12.7021 19.3184 12.5996 19.4893C12.2783 20.0361 11.4375 19.9609 11.2051 19.3662C11.1709 19.2773 11.1436 18.4297 11.1436 17.4863C11.1436 15.4424 11.1709 15.3467 11.7588 15.1553C11.9365 15.0938 12.0391 15.1074 12.2646 15.21ZM24.46 16.0371C25.041 16.2764 25.4307 16.8574 25.4307 17.5C25.4307 18.3887 24.7402 19.0723 23.8447 19.0723C22.9834 19.0654 22.2861 18.3613 22.2861 17.5C22.2861 16.9053 22.6758 16.2969 23.2021 16.0576C23.5439 15.9004 24.1182 15.8936 24.46 16.0371ZM29.2998 16.0576C29.6348 16.208 30.0586 16.6865 30.1475 17.0146C30.3047 17.582 30.1953 18.0947 29.8262 18.5254C28.8828 19.626 27.0781 18.9629 27.0713 17.5137C27.0713 16.6182 27.7549 15.9277 28.6436 15.9277C28.8623 15.9277 29.1357 15.9824 29.2998 16.0576Z" fill="white"/>
<path d="M2.48169 23.96C1.27856 24.2197 0.266846 25.2861 0.0686035 26.4961C-0.0202637 27.0225 -0.0202637 31.835 0.0686035 32.3613C0.273682 33.6396 1.3606 34.7266 2.63892 34.9316C3.18579 35.0205 31.8147 35.0205 32.3616 34.9316C33.6399 34.7266 34.7268 33.6396 34.9319 32.3613C35.0208 31.835 35.0208 27.0225 34.9319 26.4961C34.7883 25.6074 34.1252 24.6846 33.3118 24.2471C32.553 23.8369 33.3528 23.8574 17.4661 23.8643C5.46899 23.8643 2.83032 23.8848 2.48169 23.96ZM5.98853 27.1797C6.33716 27.4121 6.35767 27.542 6.35767 29.4287C6.35767 31.3018 6.33716 31.4453 6.0022 31.6777C5.74243 31.8623 5.2981 31.8213 5.04517 31.5889L4.81958 31.3906L4.79907 29.5859C4.7854 28.6016 4.79907 27.7129 4.81958 27.624C4.84009 27.5352 4.9563 27.3711 5.07251 27.2617C5.31177 27.0361 5.70825 27.002 5.98853 27.1797ZM9.1604 27.1865C9.52271 27.3984 9.53638 27.4873 9.53638 29.4287C9.53638 31.377 9.51587 31.5 9.14673 31.6914C8.76392 31.8896 8.25122 31.7598 8.06665 31.4043C7.9231 31.1445 7.91626 27.7266 8.05298 27.4668C8.25122 27.0977 8.78442 26.9609 9.1604 27.1865ZM12.3733 27.207C12.7014 27.4395 12.7219 27.583 12.7014 29.5586L12.6809 31.3906L12.4553 31.5889C12.2024 31.8213 11.7581 31.8623 11.4983 31.6777C11.1633 31.4453 11.1428 31.3018 11.1428 29.4287C11.1428 28.2939 11.1702 27.624 11.218 27.5283C11.4368 27.0908 11.9905 26.9336 12.3733 27.207ZM24.1995 27.8975C24.6165 27.9932 24.9788 28.2393 25.2043 28.5947C25.3752 28.8477 25.3958 28.9502 25.3958 29.4287C25.3958 29.9961 25.3411 30.1465 24.9924 30.543C24.6506 30.9326 23.967 31.1104 23.427 30.9395C22.969 30.8027 22.6682 30.5498 22.4631 30.1328C22.0188 29.2373 22.4836 28.1709 23.4475 27.918C23.8303 27.8086 23.8303 27.8086 24.1995 27.8975ZM29.0256 27.9111C30.01 28.1709 30.4954 29.2236 30.0374 30.1328C29.8323 30.5498 29.5315 30.8027 29.0735 30.9395C28.5334 31.1104 27.8499 30.9326 27.5081 30.543C27.1594 30.1465 27.1047 29.9961 27.1047 29.4287C27.1047 28.9502 27.1252 28.8477 27.2893 28.6016C27.5149 28.2461 27.8225 28.0273 28.2258 27.918C28.6292 27.8086 28.6223 27.8086 29.0256 27.9111Z" fill="white"/>
</g>
<defs>
<clipPath id="clip0_1294_1696">
<rect width="35" height="35" fill="white"/>
</clipPath>
</defs>
</svg>
