<svg width="35" height="35" viewBox="0 0 35 35" fill="none" xmlns="http://www.w3.org/2000/svg">
<g clip-path="url(#clip0_1294_1723)">
<path d="M7.6092 0.10247C7.24689 0.259697 7.21271 0.38958 7.17853 1.84563L7.14435 3.17864L6.3924 3.21966C5.98225 3.24017 5.52424 3.29486 5.38752 3.34271C4.49201 3.62982 3.63068 4.49114 3.34357 5.38665C3.29572 5.52337 3.24103 5.97454 3.22053 6.39153L3.17951 7.14349L1.8465 7.17767C0.376777 7.21868 0.25373 7.24603 0.096503 7.622C-0.0265438 7.92278 -0.0265438 8.02532 0.110175 8.3056C0.294745 8.70208 0.506659 8.74993 1.94221 8.74993H3.21369L3.20002 10.3359L3.17951 11.9286L1.85334 11.9492C0.363105 11.9697 0.21955 12.0107 0.0691593 12.4755C-0.0333798 12.7968 0.0349796 13.0634 0.281073 13.3027L0.486151 13.5009L1.85334 13.5214L3.21369 13.5488V15.1142V16.6796L2.00373 16.6865C0.62287 16.6865 0.390448 16.7411 0.158026 17.0829C-0.0402157 17.3769 -0.0402157 17.623 0.158026 17.9169C0.390448 18.2587 0.62287 18.3134 2.00373 18.3134L3.21369 18.3202V19.8857V21.4511L1.85334 21.4784L0.486151 21.499L0.281073 21.6972C0.0349796 21.9365 -0.0333798 22.2031 0.0691593 22.5243C0.21955 22.9892 0.363105 23.0302 1.85334 23.0507L3.17951 23.0712L3.20002 24.6572L3.21369 26.2499H1.94221C0.506659 26.2499 0.294745 26.2978 0.110175 26.6943C-0.0265438 26.9745 -0.0265438 27.0771 0.096503 27.3779C0.25373 27.7538 0.376777 27.7812 1.8465 27.8222L3.17951 27.8564L3.22053 28.6083C3.24103 29.0185 3.29572 29.4765 3.34357 29.6132C3.63068 30.5087 4.49201 31.37 5.38752 31.6572C5.52424 31.705 5.98225 31.7597 6.3924 31.7802L7.14435 31.8212L7.17853 33.1542C7.21955 34.624 7.24689 34.747 7.62287 34.9042C7.92365 35.0273 8.02619 35.0273 8.30646 34.8906C8.70295 34.706 8.7508 34.4941 8.7508 33.0585V31.787L10.3436 31.8007L11.9295 31.8212L11.95 33.1474C11.9705 34.6376 12.0115 34.7812 12.4764 34.9316C12.7977 35.0341 13.0643 34.9658 13.3035 34.7197L13.5018 34.5146L13.5223 33.1474L13.5496 31.787H15.1082H16.6668L16.6942 33.1132C16.7147 34.6308 16.7557 34.7402 17.282 34.9316C17.535 35.0204 17.5897 35.0136 17.8016 34.9111C18.2528 34.6992 18.2869 34.5829 18.3074 33.1064L18.3348 31.787H19.8934H21.452L21.4793 33.1474L21.4998 34.5146L21.6981 34.7197C21.9373 34.9658 22.2039 35.0341 22.5252 34.9316C22.9901 34.7812 23.0311 34.6376 23.0516 33.1474L23.0721 31.8212L24.6649 31.8007L26.2508 31.787V33.0585C26.2508 34.4941 26.2987 34.706 26.6951 34.8906C26.9754 35.0273 27.0779 35.0273 27.3787 34.9042C27.7547 34.747 27.782 34.624 27.8231 33.1542L27.8572 31.8212L28.6092 31.7802C29.0262 31.7597 29.4774 31.705 29.6141 31.6572C30.5096 31.37 31.3709 30.5087 31.658 29.6132C31.7059 29.4765 31.7606 29.0185 31.7811 28.6083L31.8221 27.8564L33.1551 27.8222C34.6248 27.7812 34.7479 27.7538 34.9051 27.3779C35.0281 27.0771 35.0281 26.9745 34.8914 26.6943C34.7069 26.2978 34.4949 26.2499 33.0594 26.2499H31.7879L31.8016 24.664L31.8221 23.0712L33.1483 23.0507C34.6385 23.0302 34.7821 22.9892 34.9324 22.5243C35.035 22.2031 34.9666 21.9365 34.7205 21.6972L34.5154 21.499L33.1483 21.4784L31.7879 21.4511V19.8925V18.3339L33.1141 18.3066C34.6248 18.2861 34.741 18.2451 34.9256 17.7324C35.0076 17.4999 35.0008 17.4316 34.9119 17.2128C34.7205 16.7548 34.5906 16.7138 33.1072 16.6933L31.7879 16.6659V15.1074V13.5488L33.1483 13.5214L34.5154 13.5009L34.7205 13.3027C34.9666 13.0634 35.035 12.7968 34.9324 12.4755C34.7821 12.0107 34.6385 11.9697 33.1483 11.9492L31.8221 11.9286L31.8016 10.3359L31.7879 8.74993H33.0594C34.4949 8.74993 34.7069 8.70208 34.8914 8.3056C35.0281 8.02532 35.0281 7.92278 34.9051 7.622C34.7479 7.24603 34.6248 7.21868 33.1551 7.17767L31.8221 7.14349L31.7811 6.39153C31.7606 5.97454 31.7059 5.52337 31.658 5.38665C31.3709 4.49114 30.5096 3.62982 29.6141 3.34271C29.4774 3.29486 29.0262 3.24017 28.6092 3.21966L27.8572 3.17864L27.8231 1.84563C27.782 0.375908 27.7547 0.252861 27.3787 0.0956345C27.0779 -0.0274124 26.9754 -0.0274124 26.6951 0.109306C26.2987 0.293877 26.2508 0.505791 26.2508 1.94134V3.21282L24.6649 3.19915L23.0721 3.17864L23.0516 1.85247C23.0311 0.362236 22.9901 0.218681 22.5252 0.0682907C22.2039 -0.0342484 21.9373 0.034111 21.6981 0.280205L21.4998 0.485283L21.4793 1.85247L21.452 3.21282H19.8934H18.3348L18.3074 1.89349C18.2869 0.416924 18.2528 0.300713 17.8016 0.0887985C17.5897 -0.0137405 17.535 -0.0205765 17.282 0.0682907C16.7557 0.259697 16.7147 0.369072 16.6942 1.88665L16.6668 3.21282H15.1082H13.5496L13.5223 1.85247L13.5018 0.485283L13.3035 0.280205C13.0643 0.034111 12.7977 -0.0342484 12.4764 0.0682907C12.0115 0.218681 11.9705 0.362236 11.95 1.85247L11.9295 3.17864L10.3436 3.19915L8.7508 3.21282V1.94134C8.7508 0.505791 8.70295 0.293877 8.30646 0.109306C8.03303 -0.0205765 7.89631 -0.0274124 7.6092 0.10247ZM28.3836 6.61712L28.6092 6.83587V17.4999V28.164L28.3836 28.3827L28.1649 28.6083H17.5008H6.83674L6.61799 28.3827L6.3924 28.164V17.4999V6.84271L6.59064 6.63763C6.70002 6.52825 6.85041 6.41888 6.93244 6.40521C7.00764 6.3847 11.8201 6.37786 17.617 6.3847L28.1649 6.39153L28.3836 6.61712Z" fill="white"/>
<path d="M7.96448 8.01172C7.94397 8.05957 7.93713 12.3594 7.94397 17.5684L7.96448 27.0361H17.5006H27.0367V17.5V7.96387L17.5143 7.94336C9.93323 7.92969 7.98499 7.94336 7.96448 8.01172Z" fill="white"/>
</g>
<defs>
<clipPath id="clip0_1294_1723">
<rect width="35" height="35" fill="white"/>
</clipPath>
</defs>
</svg>
