<svg width="43" height="43" viewBox="0 0 43 43" fill="none" xmlns="http://www.w3.org/2000/svg">
<rect x="0.5" y="0.5" width="42" height="42" rx="21" stroke="white"/>
<path d="M22 22.917C23.5188 22.917 24.75 21.6858 24.75 20.167C24.75 18.6482 23.5188 17.417 22 17.417C20.4812 17.417 19.25 18.6482 19.25 20.167C19.25 21.6858 20.4812 22.917 22 22.917Z" stroke="white" stroke-width="2" stroke-linecap="round" stroke-linejoin="round"/>
<path d="M21.9993 12.8335C20.0544 12.8335 18.1892 13.6061 16.8139 14.9814C15.4386 16.3566 14.666 18.2219 14.666 20.1668C14.666 21.9012 15.0345 23.036 16.041 24.2918L21.9993 31.1668L27.9577 24.2918C28.9642 23.036 29.3327 21.9012 29.3327 20.1668C29.3327 18.2219 28.5601 16.3566 27.1848 14.9814C25.8095 13.6061 23.9443 12.8335 21.9993 12.8335Z" stroke="white" stroke-width="2" stroke-linecap="round" stroke-linejoin="round"/>
</svg>
