<svg width="48" height="48" viewBox="0 0 48 48" fill="none" xmlns="http://www.w3.org/2000/svg">
<rect x="0.5" y="0.5" width="47" height="47" rx="23.5" stroke="white"/>
<path d="M24.001 21C23.2054 21 22.4423 21.3161 21.8797 21.8787C21.3171 22.4413 21.001 23.2044 21.001 24C21.001 24.7956 21.3171 25.5587 21.8797 26.1213C22.4423 26.6839 23.2054 27 24.001 27C24.7966 27 25.5597 26.6839 26.1223 26.1213C26.6849 25.5587 27.001 24.7956 27.001 24C27.001 23.2044 26.6849 22.4413 26.1223 21.8787C25.5597 21.3161 24.7966 21 24.001 21ZM24.001 19C25.3271 19 26.5989 19.5268 27.5365 20.4645C28.4742 21.4021 29.001 22.6739 29.001 24C29.001 25.3261 28.4742 26.5979 27.5365 27.5355C26.5989 28.4732 25.3271 29 24.001 29C22.6749 29 21.4031 28.4732 20.4655 27.5355C19.5278 26.5979 19.001 25.3261 19.001 24C19.001 22.6739 19.5278 21.4021 20.4655 20.4645C21.4031 19.5268 22.6749 19 24.001 19ZM30.501 18.75C30.501 19.0815 30.3693 19.3995 30.1349 19.6339C29.9005 19.8683 29.5825 20 29.251 20C28.9195 20 28.6015 19.8683 28.3671 19.6339C28.1327 19.3995 28.001 19.0815 28.001 18.75C28.001 18.4185 28.1327 18.1005 28.3671 17.8661C28.6015 17.6317 28.9195 17.5 29.251 17.5C29.5825 17.5 29.9005 17.6317 30.1349 17.8661C30.3693 18.1005 30.501 18.4185 30.501 18.75ZM24.001 16C21.527 16 21.123 16.007 19.972 16.058C19.188 16.095 18.662 16.2 18.174 16.39C17.7656 16.5399 17.3964 16.7803 17.094 17.093C16.781 17.3954 16.5404 17.7646 16.39 18.173C16.2 18.663 16.095 19.188 16.059 19.971C16.007 21.075 16 21.461 16 24C16 26.475 16.007 26.878 16.058 28.029C16.095 28.812 16.2 29.339 16.389 29.826C16.559 30.261 16.759 30.574 17.091 30.906C17.428 31.242 17.741 31.443 18.171 31.609C18.665 31.8 19.191 31.906 19.971 31.942C21.075 31.994 21.461 32 24 32C26.475 32 26.878 31.993 28.029 31.942C28.811 31.905 29.337 31.8 29.826 31.611C30.234 31.4603 30.6031 31.2201 30.906 30.908C31.243 30.572 31.444 30.259 31.61 29.828C31.8 29.336 31.906 28.81 31.942 28.028C31.994 26.925 32 26.538 32 24C32 21.526 31.993 21.122 31.942 19.971C31.905 19.189 31.799 18.661 31.61 18.173C31.4593 17.765 31.219 17.396 30.907 17.093C30.6047 16.7798 30.2355 16.5392 29.827 16.389C29.337 16.199 28.811 16.094 28.029 16.058C26.926 16.006 26.54 16 24 16M24 14C26.717 14 27.056 14.01 28.123 14.06C29.187 14.11 29.913 14.277 30.55 14.525C31.21 14.779 31.766 15.123 32.322 15.678C32.8305 16.1779 33.224 16.7826 33.475 17.45C33.722 18.087 33.89 18.813 33.94 19.878C33.987 20.944 34 21.283 34 24C34 26.717 33.99 27.056 33.94 28.122C33.89 29.187 33.722 29.912 33.475 30.55C33.2246 31.2178 32.8311 31.8226 32.322 32.322C31.822 32.8303 31.2173 33.2238 30.55 33.475C29.913 33.722 29.187 33.89 28.123 33.94C27.056 33.987 26.717 34 24 34C21.283 34 20.944 33.99 19.877 33.94C18.813 33.89 18.088 33.722 17.45 33.475C16.7823 33.2245 16.1775 32.8309 15.678 32.322C15.1694 31.8222 14.776 31.2175 14.525 30.55C14.277 29.913 14.11 29.187 14.06 28.122C14.012 27.056 14 26.717 14 24C14 21.283 14.01 20.944 14.06 19.878C14.11 18.813 14.277 18.088 14.525 17.45C14.7752 16.7822 15.1688 16.1773 15.678 15.678C16.1777 15.1692 16.7824 14.7757 17.45 14.525C18.087 14.277 18.812 14.11 19.877 14.06C20.945 14.013 21.284 14 24.001 14" fill="white"/>
</svg>
