<svg width="79" height="79" viewBox="0 0 79 79" fill="none" xmlns="http://www.w3.org/2000/svg">
<rect x="0.918605" y="0.918605" width="77.1628" height="77.1628" rx="38.5814" stroke="#313131" stroke-width="1.83721"/>
<path d="M40.4156 42.1025C43.2059 42.1025 45.4679 39.8405 45.4679 37.0501C45.4679 34.2598 43.2059 31.9978 40.4156 31.9978C37.6253 31.9978 35.3633 34.2598 35.3633 37.0501C35.3633 39.8405 37.6253 42.1025 40.4156 42.1025Z" stroke="#313131" stroke-width="2.3" stroke-linecap="round" stroke-linejoin="round"/>
<path d="M40.4182 23.5774C36.845 23.5774 33.4181 24.9969 30.8914 27.5235C28.3648 30.0502 26.9453 33.477 26.9453 37.0503C26.9453 40.2366 27.6223 42.3215 29.4715 44.6287L40.4182 57.2596L51.3649 44.6287C53.214 42.3215 53.891 40.2366 53.891 37.0503C53.891 33.477 52.4716 30.0502 49.9449 27.5235C47.4183 24.9969 43.9914 23.5774 40.4182 23.5774Z" stroke="#313131" stroke-width="2.3" stroke-linecap="round" stroke-linejoin="round"/>
</svg>
