<svg width="37" height="37" viewBox="0 0 37 37" fill="none" xmlns="http://www.w3.org/2000/svg">
<path d="M18.927 20.5639C21.6341 20.5639 23.8287 18.3694 23.8287 15.6622C23.8287 12.9551 21.6341 10.7605 18.927 10.7605C16.2199 10.7605 14.0254 12.9551 14.0254 15.6622C14.0254 18.3694 16.2199 20.5639 18.927 20.5639Z" stroke="#313131" stroke-width="2.3" stroke-linecap="round" stroke-linejoin="round"/>
<path d="M18.9286 2.59125C15.4619 2.59125 12.1372 3.96842 9.68585 6.41967C7.23459 8.87103 5.85742 12.1956 5.85742 15.6624C5.85742 18.7537 6.51423 20.7764 8.30829 23.0148L18.9286 35.269L29.5488 23.0148C31.3428 20.7764 31.9996 18.7537 31.9996 15.6624C31.9996 12.1956 30.6225 8.87103 28.1712 6.41967C25.7199 3.96842 22.3952 2.59125 18.9286 2.59125Z" stroke="#313131" stroke-width="2.3" stroke-linecap="round" stroke-linejoin="round"/>
</svg>
