<svg width="36" height="35" viewBox="0 0 36 35" fill="none" xmlns="http://www.w3.org/2000/svg">
<path d="M26.7946 24.2332L33.0406 30.4778L30.9771 32.5413L24.7325 26.2953C22.409 28.1579 19.5189 29.171 16.541 29.1667C9.29602 29.1667 3.41602 23.2867 3.41602 16.0417C3.41602 8.79675 9.29602 2.91675 16.541 2.91675C23.786 2.91675 29.666 8.79675 29.666 16.0417C29.6703 19.0197 28.6572 21.9097 26.7946 24.2332ZM23.8691 23.1511C25.7199 21.2478 26.7535 18.6965 26.7493 16.0417C26.7493 10.4024 22.1804 5.83341 16.541 5.83341C10.9016 5.83341 6.33268 10.4024 6.33268 16.0417C6.33268 21.6811 10.9016 26.2501 16.541 26.2501C19.1958 26.2543 21.7471 25.2207 23.6504 23.3699L23.8691 23.1511Z" fill="#1466A7"/>
</svg>
