<svg width="48" height="48" viewBox="0 0 48 48" fill="none" xmlns="http://www.w3.org/2000/svg">
<rect x="0.5" y="0.5" width="47" height="47" rx="23.5" stroke="white"/>
<path d="M34.4591 18C33.6891 18.35 32.8591 18.58 31.9991 18.69C32.8791 18.16 33.5591 17.32 33.8791 16.31C33.0491 16.81 32.1291 17.16 31.1591 17.36C30.3691 16.5 29.2591 16 27.9991 16C25.6491 16 23.7291 17.92 23.7291 20.29C23.7291 20.63 23.7691 20.96 23.8391 21.27C20.2791 21.09 17.1091 19.38 14.9991 16.79C14.6291 17.42 14.4191 18.16 14.4191 18.94C14.4191 20.43 15.1691 21.75 16.3291 22.5C15.6191 22.5 14.9591 22.3 14.3791 22V22.03C14.3791 24.11 15.8591 25.85 17.8191 26.24C17.1898 26.4122 16.5292 26.4362 15.8891 26.31C16.1607 27.1625 16.6926 27.9084 17.4101 28.4429C18.1276 28.9775 18.9945 29.2737 19.8891 29.29C18.3727 30.4904 16.4931 31.1393 14.5591 31.13C14.2191 31.13 13.8791 31.11 13.5391 31.07C15.4391 32.29 17.6991 33 20.1191 33C27.9991 33 32.3291 26.46 32.3291 20.79C32.3291 20.6 32.3291 20.42 32.3191 20.23C33.1591 19.63 33.8791 18.87 34.4591 18Z" fill="white"/>
</svg>
