<svg width="48" height="48" viewBox="0 0 48 48" fill="none" xmlns="http://www.w3.org/2000/svg">
<rect x="0.5" y="0.5" width="47" height="47" rx="23.5" stroke="white"/>
<path d="M22 27L27.19 24L22 21V27ZM33.56 19.17C33.69 19.64 33.78 20.27 33.84 21.07C33.91 21.87 33.94 22.56 33.94 23.16L34 24C34 26.19 33.84 27.8 33.56 28.83C33.31 29.73 32.73 30.31 31.83 30.56C31.36 30.69 30.5 30.78 29.18 30.84C27.88 30.91 26.69 30.94 25.59 30.94L24 31C19.81 31 17.2 30.84 16.17 30.56C15.27 30.31 14.69 29.73 14.44 28.83C14.31 28.36 14.22 27.73 14.16 26.93C14.09 26.13 14.06 25.44 14.06 24.84L14 24C14 21.81 14.16 20.2 14.44 19.17C14.69 18.27 15.27 17.69 16.17 17.44C16.64 17.31 17.5 17.22 18.82 17.16C20.12 17.09 21.31 17.06 22.41 17.06L24 17C28.19 17 30.8 17.16 31.83 17.44C32.73 17.69 33.31 18.27 33.56 19.17Z" fill="white"/>
</svg>
